# xmcd
#
# Track frame offsets:
#	150
#	14307
#	31962
#	49795
#	70337
#	84767
#	100312
#	114942
#	136430
#	152462
#	174197
#	189945
#
# Disc length: 2824 seconds
#
# Revision: 7
# Processed by: cddbd v1.5.1PL0 Copyright (c) Steve Scherf et al.
# Submitted via: audiograbber 1.83.01
#
DISCID=870b060c
DTITLE=Wynonna - The Other Side
DYEAR=1997
DGENRE=Country
TTITLE0=When Love Starts Talkin' 
TTITLE1=The Other Side
TTITLE2=Love Like That
TTITLE3=The Kind Of Fool Love Makes
TTITLE4=Troubled Heart And A Troubled Mind
TTITLE5=Don't You Throw That Mojo On Me
TTITLE6=Come Some Rainy Day
TTITLE7=Love's Funny That Way
TTITLE8=The Wyld Unknown
TTITLE9=Why Now
TTITLE10=We Can't Unmake Love (with John Berry)
TTITLE11=Always Will
EXTD=
EXTT0=
EXTT1=
EXTT2=
EXTT3=
EXTT4=
EXTT5=
EXTT6=
EXTT7=
EXTT8=
EXTT9=
EXTT10=
EXTT11=
PLAYORDER=
